<svg width="30" height="21" viewBox="0 0 30 21" fill="none" xmlns="http://www.w3.org/2000/svg">
<path d="M2.95645 18.486L3.38004 19.6235C3.4992 19.9435 3.93143 19.9775 4.09763 19.68L4.76453 18.486H2.95645Z" fill="#B8AFB6"/>
<path d="M27.0435 18.486L26.62 19.6235C26.5008 19.9435 26.0686 19.9775 25.9024 19.68L25.2355 18.486H27.0435Z" fill="#B8AFB6"/>
<path fill-rule="evenodd" clip-rule="evenodd" d="M3.72617 2.2119C3.72617 1.60633 4.2093 1.11542 4.80527 1.11542H14.9148V1H4.80527C4.14657 1 3.61258 1.54259 3.61258 2.2119V10.6952H3.15822C2.49951 10.6952 1.96552 11.2378 1.96552 11.9071V16.1905C1.419 16.2741 1 16.7532 1 17.3318C1 17.9693 1.50856 18.486 2.1359 18.486H2.835L3.2738 19.6644C3.427 20.0758 3.98273 20.1195 4.19642 19.7369L4.89514 18.486H14.9148V18.3706H2.1359C1.5713 18.3706 1.11359 17.9055 1.11359 17.3318C1.11359 16.7581 1.5713 16.2931 2.1359 16.2931H14.9148V16.1776H2.1359C2.11686 16.1776 2.09792 16.1781 2.07911 16.1791V11.9071C2.07911 11.3016 2.56224 10.8106 3.15822 10.8106H14.9148V10.6952H14.0061V8.21371C14.0061 7.5444 13.4721 7.00181 12.8134 7.00181H6.73631C6.0776 7.00181 5.54361 7.5444 5.54361 8.21371V10.6952H3.72617V2.2119ZM5.6572 8.21371C5.6572 7.60814 6.14033 7.11723 6.73631 7.11723H12.8134C13.4094 7.11723 13.8925 7.60814 13.8925 8.21371V10.6952H5.6572V8.21371ZM3.38004 19.6235L2.95645 18.486H4.76453L4.09763 19.68C3.93143 19.9775 3.4992 19.9435 3.38004 19.6235Z" fill="#B8AFB6"/>
<path d="M14.9148 10.8106H3.15822C2.56224 10.8106 2.07911 11.3016 2.07911 11.9071V16.1791C2.09792 16.1781 2.11686 16.1776 2.1359 16.1776H14.9148H15.0852H27.8641C27.8831 16.1776 27.9021 16.1781 27.9209 16.1791V11.9071C27.9209 11.3016 27.4378 10.8106 26.8418 10.8106H15.0852H14.9148Z" fill="#B8AFB6"/>
<path d="M14.9148 10.6952H14.0061V8.21371C14.0061 7.5444 13.4721 7.00181 12.8134 7.00181H6.73631C6.0776 7.00181 5.54361 7.5444 5.54361 8.21371V10.6952H3.72617V2.2119C3.72617 1.60633 4.2093 1.11542 4.80527 1.11542H14.9148M14.9148 10.6952V10.8106M14.9148 10.6952H15.0852M14.9148 10.8106H3.15822C2.56224 10.8106 2.07911 11.3016 2.07911 11.9071V16.1791C2.09792 16.1781 2.11686 16.1776 2.1359 16.1776H14.9148M14.9148 10.8106H15.0852M14.9148 16.1776V16.2931M14.9148 16.1776H15.0852M14.9148 16.2931H2.1359C1.5713 16.2931 1.11359 16.7581 1.11359 17.3318C1.11359 17.9055 1.5713 18.3706 2.1359 18.3706H14.9148M14.9148 16.2931H15.0852M14.9148 18.3706V18.486M14.9148 18.3706H15.0852M14.9148 18.486H4.89514L4.19642 19.7369C3.98273 20.1195 3.427 20.0758 3.2738 19.6644L2.835 18.486H2.1359C1.50856 18.486 1 17.9693 1 17.3318C1 16.7532 1.419 16.2741 1.96552 16.1905V11.9071C1.96552 11.2378 2.49951 10.6952 3.15822 10.6952H3.61258V2.2119C3.61258 1.54259 4.14657 1 4.80527 1H14.9148M14.9148 18.486H15.0852M14.9148 1V1.11542M14.9148 1H15.0852M14.9148 1.11542H15.0852M15.0852 10.6952H15.9939V8.21371C15.9939 7.5444 16.5279 7.00181 17.1866 7.00181H23.2637C23.9224 7.00181 24.4564 7.5444 24.4564 8.21371V10.6952H26.2738V2.2119C26.2738 1.60633 25.7907 1.11542 25.1947 1.11542H15.0852M15.0852 10.6952V10.8106M15.0852 10.8106H26.8418C27.4378 10.8106 27.9209 11.3016 27.9209 11.9071V16.1791C27.9021 16.1781 27.8831 16.1776 27.8641 16.1776H15.0852M15.0852 16.1776V16.2931M15.0852 16.2931H27.8641C28.4287 16.2931 28.8864 16.7581 28.8864 17.3318C28.8864 17.9055 28.4287 18.3706 27.8641 18.3706H15.0852M15.0852 18.3706V18.486M15.0852 18.486H25.1049L25.8036 19.7369C26.0173 20.1195 26.573 20.0758 26.7262 19.6644L27.165 18.486H27.8641C28.4914 18.486 29 17.9693 29 17.3318C29 16.7532 28.581 16.2741 28.0345 16.1905V11.9071C28.0345 11.2378 27.5005 10.6952 26.8418 10.6952H26.3874V2.2119C26.3874 1.54259 25.8534 1 25.1947 1H15.0852M15.0852 1V1.11542M6.73631 7.11723C6.14033 7.11723 5.6572 7.60814 5.6572 8.21371V10.6952H13.8925V8.21371C13.8925 7.60814 13.4094 7.11723 12.8134 7.11723H6.73631ZM2.95645 18.486L3.38004 19.6235C3.4992 19.9435 3.93143 19.9775 4.09763 19.68L4.76453 18.486H2.95645ZM23.2637 7.11723C23.8597 7.11723 24.3428 7.60814 24.3428 8.21371V10.6952H16.1075V8.21371C16.1075 7.60814 16.5906 7.11723 17.1866 7.11723H23.2637ZM27.0435 18.486L26.62 19.6235C26.5008 19.9435 26.0686 19.9775 25.9024 19.68L25.2355 18.486H27.0435Z" stroke="#B8AFB6"/>
</svg>
