<svg width="24" height="24" viewBox="0 0 24 24" fill="none" xmlns="http://www.w3.org/2000/svg">
<path d="M23.025 0.99251C22.3425 0.31001 21.24 0.31001 20.5575 0.99251L12 9.53251L3.44251 0.97501C2.76001 0.29251 1.65751 0.29251 0.97501 0.97501C0.29251 1.65751 0.29251 2.76001 0.97501 3.44251L9.53251 12L0.97501 20.5575C0.29251 21.24 0.29251 22.3425 0.97501 23.025C1.65751 23.7075 2.76001 23.7075 3.44251 23.025L12 14.4675L20.5575 23.025C21.24 23.7075 22.3425 23.7075 23.025 23.025C23.7075 22.3425 23.7075 21.24 23.025 20.5575L14.4675 12L23.025 3.44251C23.69 2.77751 23.69 1.65751 23.025 0.99251Z" fill="#F2F0F0"/>
</svg>
