<svg width="30" height="20" viewBox="0 0 30 20" fill="none" xmlns="http://www.w3.org/2000/svg">
<path d="M24.3333 14.5001H24.8333V14.0001V10.0001C24.8333 8.80956 25.8095 7.83342 27 7.83342C28.1905 7.83342 29.1667 8.80956 29.1667 10.0001V16.6667C29.1667 17.8573 28.1905 18.8334 27 18.8334H3.00001C1.80949 18.8334 0.833344 17.8573 0.833344 16.6667V10.0001C0.833344 8.80956 1.80949 7.83342 3.00001 7.83342C4.19053 7.83342 5.16668 8.80956 5.16668 10.0001V14.0001V14.5001H5.66668H24.3333ZM7.00001 1.16675H23C24.1905 1.16675 25.1667 2.14289 25.1667 3.33341V5.86413C23.6057 6.5714 22.5 8.13033 22.5 9.96008V12.1667H7.50001V9.96008C7.50001 8.12045 6.3967 6.5591 4.83334 5.8617V3.33341C4.83334 2.14289 5.80949 1.16675 7.00001 1.16675Z" fill="#B8AFB6" stroke="#B8AFB6"/>
</svg>
