<svg width="28" height="26" viewBox="0 0 28 26" fill="none" xmlns="http://www.w3.org/2000/svg">
<path d="M9.05715 6.94289C8.53645 6.42219 8.53645 5.57797 9.05715 5.05727L13.0571 1.05727C13.185 0.929437 13.3323 0.832986 13.4896 0.76792C13.6456 0.703209 13.8166 0.66728 13.996 0.666754L14 0.666748L14.004 0.666754C14.3439 0.667767 14.6834 0.79794 14.9428 1.05727L18.9428 5.05727C19.4635 5.57797 19.4635 6.42219 18.9428 6.94289C18.4221 7.46359 17.5778 7.46359 17.0571 6.94289L15.3333 5.21903V16.6667C15.3333 17.4031 14.7363 18.0001 14 18.0001C13.2636 18.0001 12.6666 17.4031 12.6666 16.6667V5.21903L10.9428 6.94289C10.4221 7.46359 9.57785 7.46359 9.05715 6.94289Z" fill="#F2F0F0"/>
<path d="M3.33329 2.00008C1.86053 2.00008 0.666626 3.19399 0.666626 4.66675V23.3334C0.666626 24.8062 1.86054 26.0001 3.33329 26.0001H24.6666C26.1394 26.0001 27.3333 24.8062 27.3333 23.3334V4.66675C27.3333 3.19399 26.1394 2.00008 24.6666 2.00008H22.2C21.4636 2.00008 20.8666 2.59704 20.8666 3.33341C20.8666 4.06979 21.4636 4.66675 22.2 4.66675H24.6666V23.3334H3.33329V4.66675H5.79996C6.53634 4.66675 7.13329 4.06979 7.13329 3.33341C7.13329 2.59704 6.53634 2.00008 5.79996 2.00008H3.33329Z" fill="#F2F0F0"/>
</svg>
