<svg width="19" height="23" viewBox="0 0 19 23" fill="none" xmlns="http://www.w3.org/2000/svg">
<path d="M4.69283 1H1.73857C1.33067 1 1 1.334 1 1.74821L1 11.5H5.4314V1.75C5.4314 1.33579 5.10073 1 4.69283 1Z" fill="#B8AFB6"/>
<path d="M1.05035 13.203C1.20936 13.5339 1.54289 13.9559 2.19838 14.198C2.69204 14.3802 3.11191 14.7911 3.11191 15.3174V21.25C3.11191 21.6642 3.44258 22 3.85048 22H10.8736C11.2815 22 11.6122 21.6642 11.6122 21.25V18.9925C11.6122 18.6163 11.8875 18.3014 12.2509 18.2288C15.251 17.6291 16.8016 15.8775 17.2485 15.25C17.931 14.2916 18.0053 13.1185 17.9997 12.2498C17.997 11.8356 17.6564 11.5 17.2485 11.5H5.4314H1V12.9524C1 13.0389 1.013 13.1253 1.05035 13.203Z" fill="#B8AFB6"/>
<path d="M1 1.74821C1 1.334 1.33067 1 1.73857 1H4.69283C5.10073 1 5.4314 1.33579 5.4314 1.75V11.5M1 1.74821L1 12.9524M1 1.74821L1 11.5M5.4314 11.5087V11.5M1 12.9524C1 13.0389 1.013 13.1253 1.05035 13.203C1.20936 13.5339 1.54289 13.9559 2.19838 14.198C2.69204 14.3802 3.11191 14.7911 3.11191 15.3174V21.25C3.11191 21.6642 3.44258 22 3.85048 22H10.8736C11.2815 22 11.6122 21.6642 11.6122 21.25V18.9925C11.6122 18.6163 11.8875 18.3014 12.2509 18.2288C15.251 17.6291 16.8016 15.8775 17.2485 15.25C17.931 14.2916 18.0053 13.1185 17.9997 12.2498C17.997 11.8356 17.6564 11.5 17.2485 11.5H5.4314M1 12.9524V11.5M1 11.5H5.4314M13.9249 9.25H8.0221C7.81499 9.25 7.6471 9.08211 7.6471 8.875V8.875C7.6471 8.66789 7.81499 8.5 8.0221 8.5H17.612C17.8191 8.5 17.987 8.66789 17.987 8.875V8.875C17.987 9.08211 17.8191 9.25 17.612 9.25H13.9249Z" stroke="#B8AFB6"/>
</svg>
